<?xml version="1.0" encoding="utf-8"?>
<!-- Generator: Adobe Illustrator 26.2.1, SVG Export Plug-In . SVG Version: 6.00 Build 0)  -->
<svg version="1.1" id="Layer_1" xmlns="http://www.w3.org/2000/svg" xmlns:xlink="http://www.w3.org/1999/xlink" x="0px" y="0px"
	 viewBox="0 0 769.8 291.4" style="enable-background:new 0 0 769.8 291.4;" xml:space="preserve">
<style type="text/css">
	.st0{fill:#271B4F;}
	.st1{fill:#FCD329;}
	.st2{fill:#CEEAE6;}
</style>
<g>
	<polygon id="XMLID_00000044142571092674772350000018078837530939207299_" class="st0" points="148.4,145.8 70.3,100.8 147.9,55.9 
		226,101 	"/>
	<polygon id="XMLID_00000042011440966062634870000010539521289055976102_" class="st1" points="226.5,190.3 148.4,235.5 
		147.9,146.1 226,101 	"/>
	<polygon id="XMLID_00000138565913921844813030000011668455134413920666_" class="st2" points="148.4,235.5 70.3,190.4 70.3,100.8 
		148.4,145.8 	"/>
	<g>
		<path class="st0" d="M297.5,104c11.7,0,20.2,4.1,28.1,10.8c0.9,0.9,1,2.3,0.1,3.3c-1,1-2.3,2.2-3.3,3.3c-1,1.2-1.7,1-3-0.1
			c-5.9-5.2-14.3-9.1-22.1-9.1c-18.4,0-32.3,15.3-32.3,33.4c0,17.9,14,33.6,32.3,33.6c12.8,0,20.9-4.9,20.9-4.9v-16.3h-13.4
			c-1.3,0-2.2-0.9-2.2-2.1v-4.3c0-1.3,0.9-2.2,2.2-2.2H325c1.2,0,2.1,1,2.1,2.2v26.6c0,0.6-0.5,1.5-0.9,1.9c0,0-11.9,7.7-28.7,7.7
			c-23.2,0-42-18.5-42-41.7C255.5,122.7,274.2,104,297.5,104z"/>
		<path class="st0" d="M343,140h-3.6c-1.2,0-2.2,1-2.2,2.2v42.1c0,1.2,1,2.2,2.2,2.2h3.6c1.2,0,2.2-1,2.2-2.2v-42.1
			C345.2,141.1,344.2,140,343,140z"/>
		<path class="st0" d="M350.6,142.7c-0.7-1.5,0-2.7,1.7-2.7h3.6c1,0,1.7,0.6,2.1,1.3l14.4,33.3h0.1l15.3-33.3c0.3-0.7,1-1.3,2-1.3h3
			c1.7,0,2.4,1.2,1.7,2.7l-19.9,43.8c-0.2,0.6-0.9,1.2-2,1.2h-0.6c-1,0-1.7-0.6-2-1.2L350.6,142.7z"/>
		<path class="st0" d="M405.8,140h-3.6c-1.2,0-2.2,1-2.2,2.2v42.1c0,1.2,1,2.2,2.2,2.2h3.6c1.2,0,2.2-1,2.2-2.2v-42.1
			C408,141.1,407,140,405.8,140z"/>
		<path class="st0" d="M419.8,142.2c0-1.2,1-2.2,2.2-2.2h2.2c1,0,1.6,0.5,1.9,1.4l1,3.6c0,0,6.6-6.2,16.3-6.2c13.5,0,18,8.8,18,20.9
			v24.5c0,1.2-1,2.2-2.2,2.2h-3.7c-1.2,0-2.2-1-2.2-2.2v-24.5c0-8.8-3.9-13.1-10.5-13.1c-8.7,0-15,6.6-15,6.6v31
			c0,1.2-1,2.2-2.2,2.2H422c-1.2,0-2.2-1-2.2-2.2L419.8,142.2L419.8,142.2z"/>
		<path class="st0" d="M475.7,171c0,0-3.7-4.8-3.7-11.6c0-10.8,7.6-20.5,19.6-20.5h19.6c1.3,0,2.2,0.9,2.2,2.2v2
			c0,0.8-0.5,1.9-1.3,2l-6.3,1.3c0,0,5.2,3.8,5.2,13c0,10.6-7.6,19.8-19.5,19.8c-7.4,0-11-2.9-11-2.9s-5.1,2.3-5.1,7
			c0,2.9,2.1,5.7,6.4,5.7h16.7c9.8,0,17.4,4.8,17.4,14.9c0,9.6-10,18.8-24.1,18.8c-15.6,0-22.3-8.4-22.3-16c0-7,5.6-10.1,6.7-10.8
			v-0.3c-3-0.8-8.5-3.8-8.5-11C467.9,175.5,475.7,171,475.7,171z M491.8,215c7.7,0,15.6-4.3,15.6-11c0-1.5-0.7-7.6-8.8-7.6
			c-4.3,0-8.6,0-12.9,0c0,0-7.8,2.1-7.8,8.9C477.9,210.9,483.9,215,491.8,215z M503.3,159.1c0-7.7-4.6-13-11.6-13
			c-7.1,0-12.2,5.3-12.2,13c0,7.7,5.1,13,12.2,13C498.7,172.1,503.3,166.8,503.3,159.1z"/>
		<path class="st0" d="M545.8,107.4c0-1.2,0.9-2.2,2.2-2.2h25.5c14.2,0,23.8,9.2,23.8,21.4c0,8.9-5.9,15.5-11.4,18.6
			c6.2,2.6,14,8.2,14,18.9c0,13-10.3,22.4-25.3,22.4H548c-1.3,0-2.2-1-2.2-2.2L545.8,107.4L545.8,107.4z M575.4,178.8
			c8.5,0,14.6-6.4,14.6-14.8c0-8.2-7.6-14.3-16.6-14.3h-19.2v29.1H575.4z M573.4,141.7c8.9,0,14-6.4,14-14.5c0-8.4-5-14-14-14h-18.9
			v28.5L573.4,141.7L573.4,141.7z"/>
		<path class="st0" d="M608.7,107.4c0-1.2,1-2.2,2.2-2.2h3.6c1.2,0,2.2,1,2.2,2.2v77c0,1.2-1,2.2-2.2,2.2h-3.6c-1.2,0-2.2-1-2.2-2.2
			V107.4z"/>
		<path class="st0" d="M648.3,138.9c12.9,0,23.1,11.2,23.1,24.3c0,13.4-10.2,24.5-23.1,24.5s-23.1-11.2-23.1-24.5
			C625.2,150,635.4,138.9,648.3,138.9z M648.3,180.1c8.5,0,15.1-7.6,15.1-17c0-9.2-6.6-16.6-15.1-16.6c-8.5,0-15.1,7.4-15.1,16.6
			C633.2,172.6,639.8,180.1,648.3,180.1z"/>
		<path class="st0" d="M700.3,138.9c7,0,12.4,2.8,16.6,8.1c0.8,1,0.6,2.4-0.5,3.3l-2.2,1.9c-1.7,1.6-2.3,0.5-3.4-0.5
			c-2.3-2.7-6.2-4.9-10.7-4.9c-8.7,0-15.5,7.2-15.5,16.5c0,9.3,6.6,16.7,15.3,16.7c7,0,9.6-3.5,12.3-6c1.4-1.4,2.2-1.2,3.5-0.2
			l1.3,0.9c1.2,0.8,1.5,2.1,0.8,3.3c-3.5,5.6-9.9,9.8-17.8,9.8c-12.9,0-23.8-10.3-23.8-24.3C676.3,149.7,687.6,138.9,700.3,138.9z"
			/>
		<path class="st0" d="M726.4,107.4c0-1.2,1-2.2,2.2-2.2h3.6c1.2,0,2.2,1,2.2,2.2v50.3l19.8-16.3c0.9-0.8,1.9-1.4,2.8-1.4h6.3
			c2,0,1.9,2.2,1,2.9l-22.1,17.7l25.7,23c0.9,0.8,0.8,2.9-1.2,2.9h-6.4c-1,0-1.9-0.6-2.3-0.9l-23.6-22.4v21.2c0,1.2-1,2.2-2.2,2.2
			h-3.6c-1.2,0-2.2-1-2.2-2.2L726.4,107.4L726.4,107.4z"/>
	</g>
	<g>
		<path class="st0" d="M354.1,109.9h-5.3c-0.4,0-0.6-0.3-0.6-0.6v-1.8c0-0.3,0.3-0.6,0.6-0.6h14.1c0.4,0,0.6,0.3,0.6,0.6v1.8
			c0,0.3-0.3,0.6-0.6,0.6h-5.3v19.2c0,0.3-0.3,0.6-0.6,0.6h-2.2c-0.3,0-0.6-0.3-0.6-0.6L354.1,109.9L354.1,109.9z"/>
		<path class="st0" d="M366.6,107.4c0-0.3,0.3-0.6,0.6-0.6h1.9c0.3,0,0.6,0.3,0.6,0.6v10.3c0.3-0.2,1.8-1.4,3.9-1.4
			c3.7,0,5.5,2.6,5.5,6.2v6.6c0,0.3-0.3,0.6-0.6,0.6h-1.8c-0.4,0-0.6-0.3-0.6-0.6v-6.6c0-2.1-1.1-3.3-2.8-3.3c-2,0-3.4,1.5-3.5,2.1
			v7.9c0,0.4-0.2,0.6-0.7,0.6h-1.9c-0.3,0-0.6-0.3-0.6-0.6L366.6,107.4L366.6,107.4z"/>
		<path class="st0" d="M388.6,116.3c3.4,0,6,2.6,6,6.1c0,0.2,0,0.7-0.1,0.9c0,0.3-0.3,0.6-0.6,0.6h-8.9c0.1,1.8,1.6,3.5,3.8,3.5
			c1.2,0,2.3-0.5,2.9-0.9c0.4-0.2,0.6-0.4,0.9,0l0.9,1.2c0.2,0.3,0.3,0.5-0.1,0.8c-0.9,0.8-2.6,1.6-4.8,1.6c-4,0-6.6-3.1-6.6-6.9
			C382.1,119.5,384.7,116.3,388.6,116.3z M391.6,121.7c-0.1-1.6-1.4-2.9-3-2.9c-1.8,0-3.1,1.3-3.3,2.9H391.6z"/>
	</g>
	<g>
		<path class="st0" d="M550.2,206.1c-0.1-0.2-0.4-0.4-0.6-0.4h-0.2c-0.2,0-0.5,0.2-0.6,0.4l-6.9,15.2c-0.1,0.2-0.1,0.5,0,0.7
			c0.1,0.2,0.3,0.3,0.6,0.3h1.4c0.4,0,0.7-0.3,0.8-0.5c0.2-0.5,0.5-1,0.7-1.5c0.2-0.5,0.4-0.9,0.6-1.4h7l1.3,2.9
			c0.1,0.3,0.4,0.5,0.8,0.5h1.4c0.3,0,0.5-0.1,0.6-0.3c0.1-0.2,0.1-0.4,0-0.7L550.2,206.1z M551.8,216.4H547l2.4-5.4L551.8,216.4z"
			/>
		<path class="st0" d="M570.7,212.7c-1.9-0.8-2.7-1.5-2.7-2.6c0-0.6,0.5-1.8,2.3-1.8c0.5,0,1.4,0.2,2.8,1l0.1,0
			c0.2,0.1,0.4,0.2,0.6,0.1c0.2-0.1,0.4-0.2,0.6-0.4l0.6-0.9c0.2-0.3,0.2-0.5,0.1-0.6c0-0.2-0.2-0.4-0.3-0.5
			c-0.5-0.3-2.2-1.4-4.3-1.4c-3.8,0-5.2,2.7-5.2,4.5c0,2.9,2.1,4.1,4.3,5.1c2.3,1,3.2,1.8,3.2,2.9c0,1.1-1,1.8-2.3,1.8
			c-1.6,0-3.3-1.3-3.4-1.5c-0.2-0.1-0.4-0.2-0.6-0.2c-0.2,0-0.4,0.2-0.6,0.4c-0.1,0.2-0.2,0.3-0.3,0.5c-0.1,0.2-0.2,0.3-0.3,0.5l0,0
			c-0.3,0.6,0,0.9,0.2,1.1c0.3,0.3,2.1,1.9,5.1,1.9c3,0,5.3-2,5.3-4.6C575.7,214.9,573.1,213.6,570.7,212.7z"/>
		<path class="st0" d="M592.2,205.9h-1.5c-0.4,0-0.7,0.3-0.7,0.7v6h-7.7v-6c0-0.4-0.3-0.7-0.7-0.7h-1.5c-0.4,0-0.7,0.3-0.7,0.7v15
			c0,0.4,0.3,0.7,0.7,0.7h1.5c0.4,0,0.7-0.3,0.7-0.7v-6.3h7.7v6.3c0,0.4,0.3,0.7,0.7,0.7h1.5c0.4,0,0.7-0.3,0.7-0.7v-15
			C592.9,206.2,592.6,205.9,592.2,205.9z"/>
		<path class="st0" d="M600.1,205.9h-1.5c-0.4,0-0.7,0.3-0.7,0.7v15c0,0.4,0.3,0.7,0.7,0.7h1.5c0.4,0,0.7-0.3,0.7-0.7v-15
			C600.8,206.2,600.5,205.9,600.1,205.9z"/>
		<path class="st0" d="M615.6,205.9h-9.1c-0.4,0-0.7,0.3-0.7,0.7v15c0,0.4,0.3,0.7,0.7,0.7h1.5c0.4,0,0.7-0.3,0.7-0.7v-5.7h5.8
			c0.4,0,0.7-0.3,0.7-0.7V214c0-0.4-0.3-0.7-0.7-0.7h-5.8v-4.7h6.9c0.4,0,0.7-0.3,0.7-0.7v-1.3C616.3,206.2,616,205.9,615.6,205.9z"
			/>
		<path class="st0" d="M628.2,205.9h-9.7c-0.4,0-0.7,0.3-0.7,0.7v1.3c0,0.4,0.3,0.7,0.7,0.7h3.4v13c0,0.4,0.3,0.7,0.7,0.7h1.5
			c0.4,0,0.7-0.3,0.7-0.7v-13h3.4c0.4,0,0.7-0.3,0.7-0.7v-1.3C629,206.2,628.6,205.9,628.2,205.9z"/>
		<path class="st0" d="M642.2,216.5h-1.6v-9.7c0-0.4-0.3-0.7-0.7-0.7h-0.8c-0.2,0-0.4,0.1-0.6,0.2l-8.4,10.4v1.5
			c0,0.4,0.3,0.7,0.7,0.7h7.1v2.7c0,0.4,0.3,0.7,0.7,0.7h1.3c0.4,0,0.7-0.3,0.7-0.7l0-2.7h1.6c0.4,0,0.7-0.3,0.7-0.7v-1
			C642.9,216.8,642.6,216.5,642.2,216.5z M638,210.9v5.6h-4.6L638,210.9z"/>
		<path class="st0" d="M664.6,218.2c-0.3-0.2-0.6-0.2-0.9,0c-1,0.7-2.1,1.4-3.7,1.4c-3,0-5.4-2.5-5.4-5.6c0-3.1,2.4-5.6,5.4-5.6
			c1.3,0,2.7,0.5,3.7,1.4c0.2,0.2,0.4,0.2,0.5,0.2c0.1,0,0.3-0.1,0.4-0.2l1-1c0.1-0.1,0.2-0.3,0.2-0.5c0-0.2-0.1-0.4-0.3-0.5
			c-1.7-1.5-3.5-2.2-5.7-2.2c-4.7,0-8.4,3.8-8.4,8.4c0,4.6,3.8,8.4,8.4,8.4c2.2,0,4.2-0.8,5.7-2.3c0.1-0.1,0.2-0.4,0.2-0.6
			c0-0.2-0.1-0.3-0.2-0.4L664.6,218.2z"/>
		<path class="st0" d="M676.7,205.7c-4.6,0-8.4,3.8-8.4,8.4c0,4.7,3.7,8.4,8.4,8.4c4.7,0,8.4-3.7,8.4-8.4
			C685.1,209.5,681.4,205.7,676.7,205.7z M676.7,219.7c-3.1,0-5.6-2.5-5.6-5.6c0-3.1,2.6-5.6,5.6-5.6c3,0,5.6,2.6,5.6,5.6
			C682.3,217.2,679.8,219.7,676.7,219.7z"/>
		<path class="st0" d="M703.1,206.2c-0.1-0.3-0.4-0.5-0.7-0.5H702c-0.3,0-0.6,0.2-0.6,0.4l-4.5,11.1l-4.5-11
			c-0.1-0.3-0.4-0.4-0.6-0.4h-0.4c-0.3,0-0.6,0.2-0.7,0.5l-2.8,15.2c0,0.3,0.1,0.5,0.2,0.6c0.1,0.1,0.3,0.2,0.6,0.2h1.5
			c0.3,0,0.6-0.3,0.7-0.6l1.5-9.3l3.8,9.6c0.1,0.3,0.4,0.4,0.6,0.4h0.4c0.3,0,0.6-0.2,0.6-0.4l3.8-9.6l1.5,9.3
			c0.1,0.3,0.4,0.5,0.7,0.5h1.5c0.2,0,0.4-0.1,0.6-0.2c0.1-0.2,0.2-0.4,0.1-0.6L703.1,206.2z"/>
		<path class="st0" d="M715.6,205.9h-5.2c-0.4,0-0.7,0.3-0.7,0.7v15c0,0.4,0.3,0.7,0.7,0.7h1.5c0.4,0,0.7-0.3,0.7-0.7v-5h3
			c2.9,0,5.3-2.4,5.3-5.4C721,208.3,718.6,205.9,715.6,205.9z M712.7,208.7h2.8c1.4,0,2.6,1.1,2.6,2.4c0,1.4-1.2,2.6-2.6,2.6h-2.8
			V208.7z"/>
		<path class="st0" d="M729.9,206.1c-0.1-0.2-0.4-0.4-0.6-0.4h-0.2c-0.2,0-0.5,0.2-0.6,0.4l-6.9,15.2c-0.1,0.2-0.1,0.5,0,0.7
			c0.1,0.2,0.3,0.3,0.6,0.3h1.4c0.4,0,0.7-0.3,0.8-0.5c0.2-0.5,0.5-1,0.7-1.5c0.2-0.5,0.4-0.9,0.6-1.4h7l1.3,2.9
			c0.1,0.3,0.4,0.5,0.8,0.5h1.4c0.3,0,0.5-0.1,0.6-0.3c0.1-0.2,0.1-0.4,0-0.7L729.9,206.1z M731.6,216.4h-4.8l2.4-5.4L731.6,216.4z"
			/>
		<path class="st0" d="M752.7,205.9h-1.4c-0.4,0-0.7,0.3-0.7,0.7v10l-9.4-10.9h-0.7c-0.4,0-0.7,0.3-0.7,0.7v15.2
			c0,0.4,0.3,0.7,0.7,0.7h1.4c0.4,0,0.7-0.3,0.7-0.7v-10.3l9.4,11.1l0.1,0.1h0.7c0.4,0,0.7-0.3,0.7-0.7v-15.2
			C753.4,206.2,753.1,205.9,752.7,205.9z"/>
		<path class="st0" d="M769.7,206.3c-0.1-0.2-0.4-0.4-0.6-0.4h-1.7c-0.3,0-0.5,0.2-0.6,0.3l-3.9,5.5l-3.9-5.5
			c-0.2-0.2-0.4-0.3-0.6-0.3h-1.7c-0.3,0-0.5,0.1-0.6,0.4c-0.1,0.2-0.1,0.5,0,0.7l5.2,7.5v7.1c0,0.4,0.3,0.7,0.7,0.7h1.5
			c0.4,0,0.7-0.3,0.7-0.7v-7.1l5.3-7.5C769.9,206.8,769.9,206.5,769.7,206.3z"/>
	</g>
</g>
</svg>
